<svg width="77" height="16" viewBox="0 0 77 16" fill="none" xmlns="http://www.w3.org/2000/svg">
	<path d="M13.0372 14.2154C11.6619 15.3313 9.90905 16 8 16C6.09094 16 4.33807 15.3313 2.96282 14.2154C4.33807 13.0995 6.09094 12.4308 8 12.4308C9.90905 12.4308 11.6619 13.0995 13.0372 14.2154Z" fill="#FF355E"/>
	<path fill-rule="evenodd" clip-rule="evenodd" d="M2.91895 12.2844C1.94243 11.1275 1.35385 9.63249 1.35385 8C1.35385 4.32943 4.32943 1.35385 8 1.35385C11.6706 1.35385 14.6462 4.32943 14.6462 8C14.6462 9.63249 14.0576 11.1275 13.081 12.2844C13.417 12.4943 13.739 12.7244 14.0453 12.973L14.1791 13.0815C15.3168 11.6997 16 9.92964 16 8C16 3.58172 12.4183 0 8 0C3.58172 0 0 3.58172 0 8C0 9.92964 0.683183 11.6997 1.82086 13.0815L1.95467 12.973C2.26096 12.7244 2.58297 12.4943 2.91895 12.2844Z" fill="#FF355E"/>
	<path d="M10.9538 7.75385C10.9538 9.38521 9.63136 10.7077 8 10.7077C6.36864 10.7077 5.04615 9.38521 5.04615 7.75385C5.04615 6.12248 6.36864 4.8 8 4.8C9.63136 4.8 10.9538 6.12248 10.9538 7.75385Z" fill="#FF355E"/>
	<path d="M76.4308 13.1692H74.4615V2.21538H76.4308V13.1692Z" fill="#FF355E"/>
	<path d="M70.9231 6.65169V5.78462H72.8615V13.1692H70.9231V12.0836C70.3852 12.7757 69.613 13.1217 68.6392 13.1217C67.7117 13.1217 66.7526 12.7615 66.0848 12.041C65.4264 11.311 65.1077 10.4304 65.1077 9.37817C65.1077 8.33539 65.4264 7.43852 66.0848 6.70857C66.7526 5.97862 67.6651 5.66154 68.5925 5.66154C69.5663 5.66154 70.3852 5.95966 70.9231 6.65169ZM67.5958 10.8181C67.9575 11.1878 68.4166 11.3727 68.9731 11.3727C69.5295 11.3727 69.9886 11.1878 70.3503 10.8181C70.7213 10.4389 70.9231 9.95542 70.9231 9.36767C70.9231 8.77992 70.7213 8.30119 70.3503 7.93147C69.9886 7.55228 69.5295 7.36268 68.9731 7.36268C68.4166 7.36268 67.9575 7.55228 67.5958 7.93147C67.2341 8.30119 67.0462 8.77992 67.0462 9.36767C67.0462 9.95542 67.2341 10.4389 67.5958 10.8181Z" fill="#FF355E"/>
	<path d="M58.5765 5.78462V7.09367C58.7367 6.63821 59.136 6.21474 59.3628 6.06162C59.5726 5.91992 60.0545 5.66154 60.5538 5.66154V7.65717C59.998 7.57964 59.5938 7.82819 59.1932 8.14027C58.7685 8.47106 58.5846 8.93975 58.5846 9.63748V13.1692H56.6154V5.78462H58.5765Z" fill="#FF355E"/>
	<path d="M38.6716 13.1692C37.5992 13.1692 36.7024 12.809 35.9811 12.0886C35.2693 11.3681 34.8308 10.501 34.8308 9.43933C34.8308 8.37763 35.2693 7.46263 35.9811 6.74219C36.7024 6.02176 37.5992 5.66154 38.6716 5.66154C39.3644 5.66154 39.9955 5.82743 40.565 6.15921C41.1344 6.49099 41.6466 6.93652 41.9408 7.4958L40.2802 8.42005C40.1379 8.12618 39.9196 7.89394 39.6254 7.72331C39.3407 7.55268 39.018 7.46736 38.6574 7.46736C38.1069 7.46736 37.6514 7.65221 37.2908 8.02191C36.9301 8.38213 36.7159 8.84662 36.7159 9.41538C36.7159 9.96519 36.9301 10.4297 37.2908 10.8089C37.6514 11.1691 38.1069 11.3492 38.6574 11.3492C39.0275 11.3492 39.3549 11.2686 39.6396 11.1075C39.9338 10.9368 40.2325 10.7046 40.3748 10.4107L41.9692 11.3207C41.6561 11.8895 41.21 12.3398 40.6311 12.6716C40.0617 13.0033 39.3549 13.1692 38.6716 13.1692Z" fill="#FF355E"/>
	<path d="M31.6308 6.658V5.78462H33.6V13.1692H31.6308V12.1246C31.0843 12.821 30.2999 13.1692 29.3106 13.1692C28.3685 13.1692 27.3941 12.8067 26.7157 12.0816C26.0468 11.347 25.7231 10.4608 25.7231 9.40185C25.7231 8.35242 26.0468 7.44984 26.7157 6.71524C27.3941 5.98064 28.3211 5.66154 29.2632 5.66154C30.2525 5.66154 31.0843 5.96156 31.6308 6.658ZM28.2507 10.8509C28.6181 11.223 29.0845 11.4091 29.6498 11.4091C30.2151 11.4091 30.6815 11.223 31.0489 10.8509C31.4258 10.4693 31.6308 9.98278 31.6308 9.39129C31.6308 8.79979 31.4258 8.318 31.0489 7.94593C30.6815 7.56432 30.2151 7.37352 29.6498 7.37352C29.0845 7.37352 28.6181 7.56432 28.2507 7.94593C27.8832 8.318 27.6923 8.79979 27.6923 9.39129C27.6923 9.98278 27.8832 10.4693 28.2507 10.8509Z" fill="#FF355E"/>
	<path d="M24.8615 2.22197V4.21349C23.8628 4.14583 23.3902 4.71071 23.3902 5.6V5.78462H24.8615V7.78163H23.3846V13.1692H21.4154V7.78163H20.4308V5.78462H21.4154V5.6C21.4154 4.56572 21.8451 3.67189 22.4009 3.14992C22.9662 2.61828 23.7686 2.15431 24.8615 2.22197Z" fill="#FF355E"/>
	<path d="M64 13.1692H62.0308V5.78462H64V13.1692Z" fill="#FF355E"/>
	<path d="M64.1231 3.32308C64.1231 3.93484 63.6271 4.43077 63.0154 4.43077C62.4036 4.43077 61.9077 3.93484 61.9077 3.32308C61.9077 2.71132 62.4036 2.21538 63.0154 2.21538C63.6271 2.21538 64.1231 2.71132 64.1231 3.32308Z" fill="#FF355E"/>
	<path fill-rule="evenodd" clip-rule="evenodd" d="M51.8154 13.1692C53.8546 13.1692 55.5077 11.5161 55.5077 9.47692C55.5077 7.43772 53.8546 5.78462 51.8154 5.78462C49.7762 5.78462 48.1231 7.43772 48.1231 9.47692C48.1231 11.5161 49.7762 13.1692 51.8154 13.1692ZM51.8154 11.3846C52.869 11.3846 53.7231 10.5305 53.7231 9.47692C53.7231 8.42333 52.869 7.56923 51.8154 7.56923C50.7618 7.56923 49.9077 8.42333 49.9077 9.47692C49.9077 10.5305 50.7618 11.3846 51.8154 11.3846Z" fill="#FF355E"/>
	<path d="M42.9538 10.0951V4.56747L45.0068 3.93846V5.79629H47.0341V7.73363H45.0068C45.0068 8.40457 44.9812 9.52146 44.9812 10.0448C44.9812 10.8751 45.4916 11.2179 46.0038 11.2179C46.5159 11.2179 46.9737 10.9143 46.9737 10.9143L47.6308 12.646C47.6308 12.646 46.1858 13.5535 44.7482 12.9782C43.3106 12.403 42.9538 11.3003 42.9538 10.0951Z" fill="#FF355E"/>
</svg>